<svg width="18" height="18" viewBox="0 0 18 18" fill="none" xmlns="http://www.w3.org/2000/svg">
<path d="M16.0304 10.8595L14.8485 9.67748C14.577 9.38519 14.4196 9.005 14.4052 8.60632V6.27932C14.4052 3.28745 12.4106 0.738831 8.86473 0.738831C5.31882 0.738831 3.32425 3.21358 3.32425 6.27932V8.86488C3.31741 9.09869 3.22547 9.32197 3.06569 9.4928L1.69904 10.8595C1.55985 10.9958 1.48019 11.1817 1.47742 11.3766V14.036C1.47742 14.2319 1.55525 14.4198 1.69379 14.5584C1.83233 14.6969 2.02022 14.7747 2.21615 14.7747H6.31611C6.41889 15.3762 6.7311 15.922 7.19752 16.3155C7.66394 16.709 8.25451 16.9248 8.86473 16.9248C9.47496 16.9248 10.0655 16.709 10.5319 16.3155C10.9984 15.922 11.3106 15.3762 11.4134 14.7747H15.5133C15.7092 14.7747 15.8971 14.6969 16.0357 14.5584C16.1742 14.4198 16.2521 14.2319 16.2521 14.036V11.3766C16.2493 11.1817 16.1696 10.9958 16.0304 10.8595Z" fill="white"/>
</svg>
